<!-- From http://www.keyboard-layout-editor.com , manually compressed for fun -->
<svg width='1083px'
  height='434.03074360871943px'
  viewBox='0 0 1083 434.03074360871943'
  xmlns='http://www.w3.org/2000/svg'
  xmlns:xlink="http://www.w3.org/1999/xlink">
<style type='text/css'>
  .outer {
    stroke: black;
    fill: #ffffff;
  }
  .inner {
    stroke: rgba(0,0,0,.1);
    fill: #fffffe;
  }
</style>

<defs>
  <g id="small">
    <rect x="0" y="0" width="52" height="52" rx="5" class="outer"/>
    <rect x="6" y="3" width="40" height="40" rx="5" class="inner"/>
  </g>
  <g id="bighoriz">
    <rect x="0" y="0" width="79" height="52" rx="5" class="outer"/>
    <rect x="6" y="3" width="67" height="40" rx="5" class="inner"/>
  </g>
  <g id="medvert">
    <rect x="0" y="0" width="52" height="79" rx="5" class="outer"/>
    <rect x="6" y="3" width="40" height="67" rx="5" class="inner"/>
  </g>
  <g id="bigvert">
    <rect x="0" y="0" width="52" height="106" rx="5" class="outer"/>
    <rect x="6" y="3" width="40" height="94" rx="5" class="inner"/>
  </g>
  <g id="thumbcluster" transform="rotate(30 -1 -1)">
    <use x="0" y="0" href="#bigvert"/>
    <use x="54" y="-54" href="#small"/>
    <use x="54" y="0" href="#bigvert"/>
    <use x="108" y="-54" href="#small"/>
    <use x="108" y="0" href="#small"/>
    <use x="108" y="54" href="#small"/>
  </g>
  <g id="small-column">
    <use y="0" href="#small"/>
    <use y="54" href="#small"/>
    <use y="108" href="#small"/>
    <use y="162" href="#small"/>
    <use y="216" href="#small"/>
  </g>
</defs>

<g transform='translate(10,10)'>
  <rect width="1063" height="414" stroke="#ddd" stroke-width="1" fill="#ffffff" rx="6"/>
  <g transform='translate(5,5)'>
    <g id="left-half">
      <use x="1" y="21.25" href="#bighoriz"/>
      <use x="1" y="75.25" href="#bighoriz"/>
      <use x="1" y="129.25" href="#bighoriz"/>
      <use x="1" y="183.25" href="#bighoriz"/>
      <use x="28" y="237.25" href="#small"/>

      <use x="82" y="21.25" href="#small-column"/>
      <use x="136" y="7.75" href="#small-column"/>
      <use x="190" y="1" href="#small-column"/>
      <use x="244" y="7.75" href="#small-column"/>

      <use x="298" y="14.5" href="#small"/>
      <use x="298" y="68.5" href="#small"/>
      <use x="298" y="122.5" href="#small"/>
      <use x="298" y="176.5" href="#small"/>

      <use x="352" y="14.5" href="#small"/>
      <use x="352" y="68.5" href="#medvert"/>
      <use x="352" y="149.5" href="#medvert"/>

      <use x="352" y="230.5" href="#thumbcluster"/>
    </g>
    <use transform='translate(1053,0) scale(-1,1)' href="#left-half"/>
  </g>
</g>
</svg>
